<svg fill="none" height="140" viewBox="0 0 167 140" width="167" xmlns="http://www.w3.org/2000/svg"><path d="m4 117.999h32.0999l18.2087 21.999h-54.3086z" fill="#13c58f"/><path d="m14.75 56.5986 32.75.4004 17.8083 21.4h-54.3083z" fill="#13c58f"/><path d="m24.6908-.00097656h51.5864l-22.5504 19.19997656h-32.426z" fill="#13c58f"/><path d="m46.0977 117.998 3.0015-16.2h22.8117l-2.001 10.6 6.4033 7.6h43.4218l9.205-8 4.603-25.7998-6.204-7.7999h-52.0264l-18.0092-21.7998 6.4033-37.3996 22.6116-19.19987656h61.6317l18.409 21.99977656-3.001 16.3999h-22.812l1.801-10.7999-6.403-7.6h-41.6216l-9.0046 7.6-4.2022 23.1998 6.4033 7.5999h52.0271l18.009 21.7998-7.404 40.7997-22.211 19h-63.633z" fill="#fff"/></svg>
